<svg xmlns="http://www.w3.org/2000/svg" aria-hidden="true" style="position:absolute;width:0;height:0;overflow:hidden">
  <defs>
    <symbol id="icon-Vector-3-1" viewBox="0 0 19 32">
      <path d="M15.6 0a3.6 3.6 0 0 1 3.6 3.6v24.8a3.6 3.6 0 0 1-3.6 3.6h-12A3.6 3.6 0 0 1 0 28.4V3.6A3.6 3.6 0 0 1 3.6 0h12zm0 2.4h-12a1.2 1.2 0 0 0-1.2 1.2v24.8c0 .662.538 1.2 1.2 1.2h12a1.2 1.2 0 0 0 1.2-1.2V3.6a1.2 1.2 0 0 0-1.2-1.2zm-4.002 22.4h.002a1.2 1.2 0 0 1 .002 2.4l-4 .006H7.6a1.2 1.2 0 0 1-.002-2.4l4-.006z"/>
    </symbol>
    <symbol id="icon-Vector-4-1" viewBox="0 0 19 32">
      <path d="M9.6.658h-.016A9.584 9.584 0 0 0 0 10.24c0 9.166 9.6 21.12 9.6 21.12s9.6-11.955 9.6-21.12A9.584 9.584 0 0 0 9.616.658h-.017.001zm0 14.881a5.184 5.184 0 0 1 0-10.368 5.184 5.184 0 0 1 0 10.368z"/>
    </symbol>
  </defs>
</svg>
